<?xml version="1.0" ?><!DOCTYPE svg  PUBLIC '-//W3C//DTD SVG 1.1//EN'  'http://www.w3.org/Graphics/SVG/1.1/DTD/svg11.dtd'><svg height="100%" style="fill-rule:evenodd;clip-rule:evenodd;stroke-linejoin:round;stroke-miterlimit:1.41421;" version="1.1" viewBox="0 0 101 125" width="100%" xml:space="preserve" xmlns="http://www.w3.org/2000/svg" xmlns:serif="http://www.serif.com/" xmlns:xlink="http://www.w3.org/1999/xlink"><path d="M29.394,29.206c-1.9,1.1 -3,3.1 -3,5.2l0,56.2c0,2.2 1.2,4.2 3,5.2c0.9,0.5 1.9,0.8 3,0.8c1.1,0 2.1,-0.3 3.1,-0.9l46.8,-28.1c1.8,-1.1 2.9,-3 2.9,-5.1c0,-2.1 -1.1,-4.1 -2.9,-5.1l-46.9,-28.1c-1.8,-1.2 -4.2,-1.2 -6,-0.1Zm4.9,57.9l0,-49.2l41,24.6l-41,24.6Z" style="fill-rule:nonzero;"/><path d="M34.294,87.106l0,-49.2l41,24.6l-41,24.6Z" style="fill:#ff1f10;"/><path d="M34.294,85l0,2.106l41,-24.6l-5.844,-3.506l-35.156,26Z" style="fill-opacity:0.199502;"/></svg>