<?xml version="1.0" encoding="UTF-8"?> <svg xmlns="http://www.w3.org/2000/svg" width="1438" height="2520" viewBox="0 0 1438 2520" fill="none"> <mask id="mask0_148_1567" style="mask-type:alpha" maskUnits="userSpaceOnUse" x="0" y="0" width="1438" height="2520"> <rect width="1438" height="2520" fill="url(#paint0_linear_148_1567)"></rect> </mask> <g mask="url(#mask0_148_1567)"> <g clip-path="url(#clip0_148_1567)"> <path d="M764.865 1964.11L1116.16 1507.33" stroke="#B2B2B0" stroke-width="0.237737" stroke-miterlimit="10"></path> <path d="M772.656 1962.71L938.013 1607.72" stroke="#B2B2B0" stroke-width="0.237737" stroke-miterlimit="10"></path> <path d="M774.057 1970.5L767.13 1450.51" stroke="#B2B2B0" stroke-width="0.237737" stroke-miterlimit="10"></path> <path d="M774.057 1970.5L651.917 1193.43" stroke="#B2B2B0" stroke-width="0.237737" stroke-miterlimit="10"></path> <path d="M772.656 1962.71L858.825 1408.75" stroke="#B2B2B0" stroke-width="0.237737" stroke-miterlimit="10"></path> <path d="M772.656 1962.71L1257.38 1580.7" stroke="#B2B2B0" stroke-width="0.237737" stroke-miterlimit="10"></path> <path d="M771.253 1954.91C775.544 1954.14 779.672 1957.01 780.446 1961.31C781.228 1965.62 778.348 1969.73 774.057 1970.5C769.767 1971.27 765.646 1968.42 764.864 1964.11C764.09 1959.82 766.962 1955.69 771.253 1954.91Z" fill="#171714"></path> <path d="M429.596 1099.72L593.436 1142.38" stroke="#B2B2B0" stroke-width="0.237737" stroke-miterlimit="10"></path> <path d="M429.596 1099.72L342.08 958.69" stroke="#B2B2B0" stroke-width="0.237737" stroke-miterlimit="10"></path> <path d="M424.749 1093.4C428.199 1090.73 433.19 1091.38 435.85 1094.83C438.529 1098.29 437.899 1103.27 434.423 1105.94C430.973 1108.62 425.981 1107.97 423.321 1104.51C420.642 1101.06 421.272 1096.07 424.749 1093.4Z" fill="#171714"></path> <path d="M339.573 951.563C343.023 948.884 348.014 949.535 350.674 952.994C353.354 956.445 352.724 961.43 349.247 964.098C345.797 966.777 340.805 966.126 338.145 962.667C335.466 959.216 336.096 954.231 339.573 951.563Z" fill="#171714"></path> <path d="M767.594 641.996L680.078 500.962" stroke="#B2B2B0" stroke-width="0.237737" stroke-miterlimit="10"></path> <path d="M677.573 493.836C681.023 491.156 686.014 491.807 688.674 495.266C691.354 498.717 690.724 503.703 687.247 506.37C683.797 509.049 678.805 508.398 676.145 504.939C673.466 501.488 674.096 496.503 677.573 493.836Z" fill="#171714"></path> <path d="M775.603 1137.47C775.37 1137.56 775.137 1137.65 774.904 1137.74L886.805 1228.52C887.038 1228.43 887.271 1228.34 887.504 1228.26L775.603 1137.47Z" fill="white"></path> <path d="M772.185 1561.79C772.42 1561.88 772.654 1561.97 772.888 1562.06L887.753 1241.41C887.507 1241.35 887.28 1241.28 887.038 1241.17L772.185 1561.79Z" fill="white"></path> <path d="M844.311 1571C844.28 1570.75 844.23 1570.5 844.226 1570.25L776.209 1571.43C776.082 1571.68 775.962 1571.95 775.789 1572.2L844.311 1571Z" fill="white"></path> <path d="M850.648 1576.91L871.761 1796.28C871.961 1796.05 872.223 1795.86 872.465 1795.68L851.412 1576.93C851.412 1576.93 851.315 1576.96 851.261 1576.94C851.037 1576.94 850.845 1576.9 850.64 1576.89L850.648 1576.91Z" fill="white"></path> <path d="M779.576 1131.1C779.513 1127.27 776.337 1124.21 772.516 1124.29C768.688 1124.35 765.648 1127.52 765.711 1131.35C765.774 1135.18 768.942 1138.22 772.77 1138.15C773.52 1138.14 774.217 1137.98 774.885 1137.75C775.118 1137.66 775.359 1137.59 775.584 1137.48C777.984 1136.36 779.627 1133.9 779.576 1131.1Z" fill="white"></path> <path d="M889.608 1227.87C888.859 1227.89 888.161 1228.05 887.494 1228.28C887.261 1228.37 887.02 1228.44 886.795 1228.55C884.395 1229.67 882.752 1232.12 882.803 1234.93C882.862 1237.76 884.606 1240.17 887.047 1241.19C887.282 1241.28 887.528 1241.34 887.762 1241.43C888.443 1241.64 889.113 1241.76 889.87 1241.76C893.698 1241.7 896.738 1238.53 896.675 1234.7C896.612 1230.87 893.444 1227.83 889.616 1227.89L889.608 1227.87Z" fill="white"></path> <path d="M769.905 1561.42C766.077 1561.48 763.037 1564.65 763.1 1568.48C763.163 1572.31 766.338 1575.37 770.159 1575.29C772.527 1575.25 774.573 1574.02 775.789 1572.2C775.943 1571.96 776.063 1571.69 776.21 1571.43C776.688 1570.47 776.982 1569.38 776.964 1568.23C776.909 1565.46 775.259 1563.13 772.915 1562.07C772.693 1561.95 772.459 1561.87 772.213 1561.8C771.498 1561.57 770.728 1561.41 769.924 1561.41L769.905 1561.42Z" fill="white"></path> <path d="M850.646 1576.91C850.851 1576.92 851.044 1576.96 851.267 1576.96C851.306 1576.94 851.353 1576.95 851.418 1576.95C855.17 1576.8 858.14 1573.68 858.073 1569.9C858.01 1566.07 854.834 1563.01 851.014 1563.09C847.185 1563.15 844.126 1566.33 844.208 1570.15C844.223 1570.19 844.231 1570.21 844.226 1570.25C844.238 1570.52 844.28 1570.75 844.311 1571C844.762 1574.21 847.391 1576.66 850.646 1576.91Z" fill="white"></path> <path d="M871.748 1796.31C870.52 1797.58 869.78 1799.31 869.805 1801.24C869.868 1805.07 873.044 1808.13 876.865 1808.05C880.693 1807.98 883.733 1804.82 883.67 1800.99C883.607 1797.16 880.431 1794.1 876.611 1794.18C875.019 1794.21 873.597 1794.8 872.432 1795.71C872.19 1795.89 871.955 1796.09 871.728 1796.31L871.748 1796.31Z" fill="white"></path> <path d="M1370.03 1030.6C1369.88 1030.79 1369.71 1030.99 1369.53 1031.16L1473.6 1284.71C1473.79 1284.57 1473.99 1284.45 1474.19 1284.33L1370.05 1030.59L1370.03 1030.6Z" fill="white"></path> <path d="M1360.22 1243.88C1360.43 1243.86 1360.68 1243.85 1360.9 1243.86L1367.1 1032.67C1366.89 1032.76 1366.64 1032.81 1366.41 1032.85L1360.21 1243.86L1360.22 1243.88Z" fill="white"></path> <path d="M1174.77 1251.56C1174.81 1251.79 1174.81 1252.01 1174.83 1252.23L1354.7 1249.28C1354.72 1249.05 1354.79 1248.83 1354.84 1248.61L1174.77 1251.56Z" fill="white"></path> <path d="M1170.48 1246.45C1167.19 1245.42 1163.67 1247.23 1162.64 1250.54C1161.61 1253.83 1163.42 1257.35 1166.73 1258.38C1170.03 1259.41 1173.53 1257.58 1174.57 1254.29C1174.77 1253.61 1174.84 1252.91 1174.82 1252.23C1174.83 1252 1174.8 1251.77 1174.77 1251.56C1174.44 1249.26 1172.85 1247.19 1170.48 1246.45Z" fill="white"></path> <path d="M1354.93 1248.21C1354.89 1248.34 1354.88 1248.48 1354.85 1248.63C1354.8 1248.85 1354.73 1249.07 1354.71 1249.3C1354.32 1252.26 1356.07 1255.15 1359.01 1256.08C1362.3 1257.11 1365.82 1255.3 1366.85 1252.01C1367.88 1248.71 1366.07 1245.2 1362.75 1244.15C1362.13 1243.97 1361.52 1243.89 1360.89 1243.89C1360.67 1243.88 1360.44 1243.88 1360.21 1243.9C1357.81 1244.15 1355.68 1245.79 1354.9 1248.25L1354.93 1248.21Z" fill="white"></path> <path d="M1371.07 1028.66C1372.1 1025.37 1370.29 1021.85 1366.98 1020.83C1363.69 1019.79 1360.17 1021.61 1359.13 1024.92C1358.09 1028.22 1359.93 1031.72 1363.22 1032.76C1364.29 1033.11 1365.38 1033.11 1366.4 1032.88C1366.63 1032.83 1366.85 1032.77 1367.09 1032.7C1368 1032.4 1368.82 1031.86 1369.51 1031.17C1369.69 1030.99 1369.87 1030.81 1370.01 1030.6C1370.46 1030.03 1370.81 1029.38 1371.05 1028.67L1371.07 1028.66Z" fill="white"></path> <path d="M1500.93 263.497L1494.33 165.946C1494.07 166.004 1493.82 166.054 1493.54 166.092L1500.14 263.643L1432.4 275.205C1432.55 275.435 1432.66 275.707 1432.77 275.952L1500.2 264.444L1505.58 344.191C1505.84 344.095 1506.1 344.017 1506.36 343.96L1500.97 264.324L1557.16 254.736C1557.1 254.469 1557.07 254.213 1557.04 253.958L1500.92 263.543L1500.93 263.497Z" fill="white"></path> <path d="M1403.2 451.157L1408.83 402.005C1408.56 401.997 1408.31 401.962 1408.05 401.927L1402.41 451.014L1333.35 438.629C1333.34 438.899 1333.3 439.157 1333.27 439.416L1402.33 451.801L1372.35 712.959C1372.63 713.033 1372.87 713.094 1373.14 713.195L1403.12 451.944L1485.61 466.745C1485.64 466.487 1485.68 466.229 1485.73 465.963L1403.2 451.157Z" fill="white"></path> <path d="M1159.48 990.4C1159.7 990.515 1159.92 990.611 1160.13 990.753C1160.13 990.753 1160.14 990.792 1160.16 990.785L1302.2 779.346C1301.92 779.319 1301.64 779.272 1301.34 779.206L1159.46 990.407L1159.48 990.4Z" fill="white"></path> <path d="M1458.62 371.568L1427.87 286.293C1427.6 286.351 1427.33 286.389 1427.07 286.42L1457.9 371.909L1415.74 391.319C1415.88 391.557 1416.01 391.775 1416.1 392.028L1458.16 372.654L1489.98 460.904C1490.24 460.808 1490.49 460.711 1490.74 460.661L1458.89 372.333L1500.98 352.945C1500.91 352.685 1500.85 352.418 1500.81 352.143L1458.62 371.568Z" fill="white"></path> <path d="M1311.61 673.445L1325.96 445.799C1325.69 445.791 1325.43 445.756 1325.17 445.722L1310.86 672.885L1223.84 608.014C1223.76 608.267 1223.67 608.548 1223.56 608.79L1310.79 673.823L1305.05 765.046C1305.33 765.12 1305.57 765.181 1305.84 765.282L1311.57 674.395L1365.43 714.539C1365.63 714.352 1365.85 714.178 1366.08 714.023L1311.65 673.43L1311.61 673.445Z" fill="white"></path> <path d="M1432.28 283.269C1433.8 281.017 1433.89 278.221 1432.77 275.952C1432.66 275.707 1432.53 275.443 1432.4 275.205C1431.88 274.378 1431.18 273.665 1430.33 273.076C1426.97 270.801 1422.41 271.678 1420.15 275.036C1417.88 278.401 1418.75 282.946 1422.11 285.222C1423.62 286.249 1425.4 286.592 1427.08 286.393C1427.36 286.355 1427.61 286.324 1427.88 286.266C1429.62 285.868 1431.21 284.856 1432.3 283.262L1432.28 283.269Z" fill="white"></path> <path d="M1415.34 398.822C1416.75 396.746 1416.95 394.176 1416.1 392.008C1416 391.755 1415.85 391.545 1415.74 391.299C1415.18 390.264 1414.43 389.329 1413.4 388.63C1410.04 386.354 1405.47 387.232 1403.22 390.589C1400.94 393.955 1401.82 398.499 1405.18 400.775C1406.08 401.387 1407.07 401.746 1408.07 401.919C1408.33 401.973 1408.6 401.981 1408.85 401.997C1411.36 402.15 1413.85 401.041 1415.36 398.815L1415.34 398.822Z" fill="white"></path> <path d="M1332.1 442.581C1332.76 441.591 1333.13 440.515 1333.27 439.416C1333.3 439.157 1333.33 438.88 1333.35 438.629C1333.4 436.223 1332.27 433.85 1330.14 432.396C1326.77 430.12 1322.23 430.99 1319.95 434.356C1317.67 437.701 1318.55 442.265 1321.91 444.541C1322.91 445.228 1324.03 445.6 1325.17 445.722C1325.45 445.749 1325.71 445.784 1325.96 445.799C1328.33 445.827 1330.66 444.692 1332.1 442.581Z" fill="white"></path> <path d="M1372.34 712.966C1370.18 712.343 1367.86 712.741 1366.04 714.038C1365.81 714.193 1365.61 714.36 1365.39 714.554C1364.96 714.941 1364.57 715.36 1364.23 715.869C1361.95 719.234 1362.82 723.778 1366.19 726.054C1369.55 728.33 1374.1 727.46 1376.37 724.094C1378.65 720.729 1377.78 716.185 1374.41 713.909C1373.99 713.625 1373.56 713.386 1373.12 713.202C1372.85 713.102 1372.61 713.04 1372.34 712.966Z" fill="white"></path> <path d="M1297.02 767.965C1294.74 771.311 1295.62 775.874 1298.98 778.15C1299.74 778.664 1300.53 778.985 1301.36 779.179C1301.65 779.245 1301.94 779.292 1302.21 779.319C1304.85 779.625 1307.57 778.538 1309.17 776.19C1311.44 772.825 1310.57 768.281 1307.2 766.005C1306.76 765.709 1306.28 765.466 1305.81 765.269C1305.55 765.169 1305.3 765.107 1305.03 765.034C1302.09 764.221 1298.83 765.292 1297.02 767.965Z" fill="white"></path> <path d="M1223.84 608.013C1224.82 604.988 1223.76 601.584 1221 599.723C1217.63 597.447 1213.09 598.318 1210.82 601.683C1208.53 605.029 1209.41 609.593 1212.78 611.868C1216.12 614.151 1220.69 613.274 1222.96 609.909C1223.2 609.549 1223.4 609.185 1223.56 608.809C1223.68 608.54 1223.76 608.287 1223.85 608.033L1223.84 608.013Z" fill="white"></path> <path d="M1159.48 990.4C1156.21 988.647 1152.09 989.578 1149.95 992.713C1147.66 996.059 1148.54 1000.62 1151.91 1002.9C1155.27 1005.17 1159.84 1004.3 1162.09 1000.94C1164.35 997.6 1163.49 993.075 1160.18 990.777C1160.18 990.777 1160.17 990.739 1160.15 990.746C1159.94 990.604 1159.7 990.515 1159.5 990.392L1159.48 990.4Z" fill="white"></path> <path d="M889.046 1121.93C889.512 1121.76 889.998 1121.57 890.486 1121.45L887.894 1116.54L889.046 1121.93Z" fill="white"></path> <path d="M882.814 1129.15C882.916 1128.78 883.057 1128.39 883.206 1128.02L282.757 857.691C282.628 858.052 282.461 858.428 282.285 858.785L882.814 1129.15Z" fill="white"></path> <path d="M886.813 1123.26L372.828 595.07C372.597 595.337 372.411 595.609 372.145 595.844C372.106 595.859 372.075 595.893 372.024 595.935L885.864 1123.98C886.162 1123.71 886.482 1123.5 886.794 1123.26L886.813 1123.26Z" fill="white"></path> <path d="M887.875 1116.55L890.467 1121.46C890.851 1121.35 891.235 1121.25 891.634 1121.19L886.98 1112.35L795.458 684.073C795.111 684.273 794.749 684.434 794.388 684.594L884.989 1108.54L684.229 727.206C683.889 727.425 683.547 727.578 683.193 727.758L885.873 1112.77L887.945 1122.49C888.292 1122.29 888.646 1122.11 889.015 1121.97L887.863 1116.57L887.875 1116.55Z" fill="white"></path> <path d="M885.178 1139.34C889.11 1143.74 895.795 1143.99 900.131 1139.9C904.44 1135.8 904.77 1128.92 900.838 1124.53C898.422 1121.82 894.97 1120.71 891.653 1121.18C891.255 1121.25 890.871 1121.35 890.487 1121.45C890.006 1121.59 889.525 1121.73 889.047 1121.93C888.678 1122.08 888.324 1122.26 887.977 1122.46C887.572 1122.68 887.19 1122.96 886.814 1123.26C886.502 1123.49 886.182 1123.7 885.885 1123.97C884.659 1125.13 883.792 1126.53 883.226 1128.02C883.077 1128.38 882.956 1128.77 882.834 1129.15C881.902 1132.64 882.644 1136.5 885.178 1139.34Z" fill="white"></path> <path d="M265.084 861.315C269.016 865.712 275.721 865.952 280.03 861.853C280.998 860.948 281.708 859.896 282.277 858.765C282.453 858.409 282.601 858.04 282.749 857.672C284.145 853.93 283.526 849.579 280.737 846.481C276.805 842.084 270.1 841.844 265.791 845.943C261.455 850.031 261.152 856.918 265.084 861.315Z" fill="white"></path> <path d="M372.829 595.07C376.451 590.922 376.549 584.603 372.852 580.472C368.92 576.075 362.215 575.835 357.906 579.934C353.578 584.041 353.268 590.909 357.2 595.306C361.097 599.672 367.717 599.922 372.044 595.928C372.083 595.913 372.133 595.871 372.165 595.837C372.424 595.582 372.609 595.31 372.848 595.063L372.829 595.07Z" fill="white"></path> <path d="M684.249 727.198C684.799 726.832 685.361 726.439 685.866 725.956C690.195 721.849 690.505 714.981 686.573 710.584C682.641 706.187 675.956 705.939 671.627 710.046C667.291 714.133 666.988 721.02 670.92 725.418C674.111 728.985 679.128 729.76 683.213 727.751C683.567 727.571 683.91 727.417 684.249 727.198Z" fill="white"></path> <path d="M797.247 682.698C801.583 678.611 801.886 671.724 797.954 667.326C794.022 662.929 787.336 662.682 783.008 666.788C778.68 670.895 778.369 677.763 782.301 682.16C785.451 685.677 790.344 686.477 794.388 684.594C794.75 684.434 795.111 684.273 795.458 684.073C796.093 683.697 796.679 683.25 797.254 682.718L797.247 682.698Z" fill="white"></path> <path d="M624.535 789.858L615.556 1034.16" stroke="#171714" stroke-width="0.237737" stroke-miterlimit="10"></path> <path d="M615.557 1034.16L775.188 915.277" stroke="#171714" stroke-width="0.237737" stroke-miterlimit="10"></path> <path d="M776.005 918.573L766.402 642.075" stroke="#171714" stroke-width="0.237737" stroke-miterlimit="10"></path> <path d="M624.133 795.202L850.178 710.571" stroke="#171714" stroke-width="0.237737" stroke-miterlimit="10"></path> <path d="M850.176 710.571L952.014 500.911" stroke="#171714" stroke-width="0.237737" stroke-miterlimit="10"></path> <path d="M950.371 501.385L1180.19 529.815" stroke="#171714" stroke-width="0.237737" stroke-miterlimit="10"></path> <path d="M1180.19 529.815L1341.51 606.896" stroke="#171714" stroke-width="0.237737" stroke-miterlimit="10"></path> <path d="M1341.51 606.896L1463.77 480.25" stroke="#171714" stroke-width="0.237737" stroke-miterlimit="10"></path> <path d="M1465.24 477.703L1487.6 658.043" stroke="#171714" stroke-width="0.237737" stroke-miterlimit="10"></path> <path d="M1641.34 1349.27L1414.53 1423.39" stroke="#171714" stroke-width="0.237737" stroke-miterlimit="10"></path> <path d="M1414.05 1421.92L1263.52 1577.12" stroke="#171714" stroke-width="0.237737" stroke-miterlimit="10"></path> <path d="M1263.52 1577.12L1116.16 1507.33" stroke="#171714" stroke-width="0.237737" stroke-miterlimit="10"></path> <path d="M1120.33 1502.46L938.014 1607.72" stroke="#171714" stroke-width="0.237737" stroke-miterlimit="10"></path> <path d="M938.014 1607.72L856.65 1401.79" stroke="#171714" stroke-width="0.237737" stroke-miterlimit="10"></path> <path d="M856.65 1401.79L702.74 1375.42" stroke="#171714" stroke-width="0.237737" stroke-miterlimit="10"></path> <path d="M702.74 1375.42L729.897 1168.66" stroke="#171714" stroke-width="0.237737" stroke-miterlimit="10"></path> <path d="M729.899 1168.66L615.557 1034.16" stroke="#171714" stroke-width="0.237737" stroke-miterlimit="10"></path> <path d="M776.004 918.574L651.919 1193.43" stroke="#171714" stroke-width="0.237737" stroke-miterlimit="10"></path> <path d="M651.92 1193.43L796.366 1280.07" stroke="#171714" stroke-width="0.237737" stroke-miterlimit="10"></path> <path d="M796.366 1280.07L767.133 1450.51" stroke="#171714" stroke-width="0.237737" stroke-miterlimit="10"></path> <path d="M765.908 1445.57L965.979 1376.2" stroke="#171714" stroke-width="0.237737" stroke-miterlimit="10"></path> <path d="M965.979 1376.2L1186.36 1570.13" stroke="#171714" stroke-width="0.237737" stroke-miterlimit="10"></path> <path d="M1187.2 1568.96L1254.25 1486.19" stroke="#171714" stroke-width="0.237737" stroke-miterlimit="10"></path> <path d="M1253.17 1486.74L1424.83 1535" stroke="#171714" stroke-width="0.237737" stroke-miterlimit="10"></path> <path d="M1423.68 1535.15L1454.44 1338.15" stroke="#171714" stroke-width="0.237737" stroke-miterlimit="10"></path> <path d="M1466.95 624.63L1383.13 457.928" stroke="#171714" stroke-width="0.237737" stroke-miterlimit="10"></path> <path d="M1383.13 457.929L1202.06 582.163" stroke="#171714" stroke-width="0.237737" stroke-miterlimit="10"></path> <path d="M1205.07 582.993L1062.98 460.865" stroke="#171714" stroke-width="0.237737" stroke-miterlimit="10"></path> <path d="M1062.98 460.865L953.704 605.728" stroke="#171714" stroke-width="0.237737" stroke-miterlimit="10"></path> <path d="M953.706 605.728L766.266 642.416" stroke="#171714" stroke-width="0.237737" stroke-miterlimit="10"></path> <path d="M675.567 888.862L766.206 740.396" stroke="#171714" stroke-width="0.237737" stroke-miterlimit="10"></path> <path d="M675.569 888.861L624.133 795.202" stroke="#171714" stroke-width="0.237737" stroke-miterlimit="10"></path> <path d="M766.4 642.075L824.804 546.329" stroke="#171714" stroke-width="0.237737" stroke-miterlimit="10"></path> <path d="M929.128 650.126L824.805 546.329" stroke="#171714" stroke-width="0.237737" stroke-miterlimit="10"></path> <path d="M675.567 888.861L615.556 1034.16" stroke="#171714" stroke-width="0.237737" stroke-miterlimit="10"></path> <path d="M683.411 1117.83L594.188 1140.16" stroke="#171714" stroke-width="0.237737" stroke-miterlimit="10"></path> <path d="M594.188 1140.16L651.919 1193.43" stroke="#171714" stroke-width="0.237737" stroke-miterlimit="10"></path> <path d="M767.133 1450.51L944.058 1607.28" stroke="#171714" stroke-width="0.237737" stroke-miterlimit="10"></path> <path d="M1186.36 1570.13L1263.52 1577.12" stroke="#171714" stroke-width="0.237737" stroke-miterlimit="10"></path> <path d="M1454.44 1338.15L1630.12 1171.39" stroke="#171714" stroke-width="0.237737" stroke-miterlimit="10"></path> <path d="M1062.98 460.865L1383.13 457.929" stroke="#171714" stroke-width="0.237737" stroke-miterlimit="10"></path> <path d="M1341.51 606.896L1487.6 658.043" stroke="#171714" stroke-width="0.237737" stroke-miterlimit="10"></path> <path d="M929.129 650.126L1135.2 526.391" stroke="#171714" stroke-width="0.237737" stroke-miterlimit="10"></path> <path d="M1261.24 1573.27L1445.07 1591.18" stroke="#171714" stroke-width="0.237737" stroke-miterlimit="10"></path> <path d="M1445.06 1591.18L1514.34 1390.33" stroke="#171714" stroke-width="0.237737" stroke-miterlimit="10"></path> <path d="M903.528 614.889C904.597 619.135 902.007 623.422 897.782 624.483C893.537 625.551 889.25 622.96 888.181 618.714C887.113 614.468 889.702 610.18 893.947 609.112C898.172 608.052 902.479 610.635 903.547 614.881L903.528 614.889Z" fill="#171714"></path> <path d="M856.61 709.289C857.679 713.535 855.089 717.822 850.864 718.883C846.619 719.951 842.332 717.36 841.263 713.114C840.195 708.868 842.784 704.58 847.01 703.52C851.254 702.452 855.541 705.043 856.61 709.289Z" fill="#171714"></path> <path d="M682.684 884.244C683.753 888.49 681.163 892.778 676.919 893.846C672.674 894.913 668.387 892.323 667.318 888.077C666.249 883.83 668.839 879.543 673.084 878.475C677.328 877.407 681.635 879.99 682.684 884.244Z" fill="#171714"></path> <path d="M782.137 915.691C783.206 919.937 780.617 924.225 776.391 925.285C772.146 926.353 767.859 923.762 766.791 919.516C765.722 915.27 768.311 910.983 772.537 909.922C776.782 908.854 781.069 911.445 782.137 915.691Z" fill="#171714"></path> <path d="M694.227 1116.08C695.296 1120.32 692.706 1124.61 688.462 1125.68C684.217 1126.75 679.93 1124.16 678.861 1119.91C677.792 1115.66 680.382 1111.38 684.627 1110.31C688.871 1109.24 693.178 1111.82 694.22 1116.06L694.227 1116.08Z" fill="#171714"></path> <path d="M659.602 1191.52C660.671 1195.76 658.081 1200.05 653.856 1201.11C649.611 1202.18 645.324 1199.59 644.256 1195.34C643.187 1191.1 645.776 1186.81 650.002 1185.75C654.246 1184.68 658.534 1187.27 659.595 1191.5L659.602 1191.52Z" fill="#171714"></path> <path d="M737.579 1166.75C738.647 1170.99 736.058 1175.28 731.833 1176.34C727.588 1177.41 723.301 1174.82 722.232 1170.57C721.164 1166.33 723.753 1162.04 727.978 1160.98C732.223 1159.91 736.51 1162.5 737.571 1166.73L737.579 1166.75Z" fill="#171714"></path> <path d="M728.524 1234.18C729.592 1238.43 727.003 1242.72 722.778 1243.78C718.533 1244.84 714.226 1242.26 713.185 1238.03C712.116 1233.78 714.698 1229.47 718.95 1228.43C723.175 1227.37 727.482 1229.95 728.551 1234.19L728.524 1234.18Z" fill="#171714"></path> <path d="M710.424 1373.5C711.493 1377.75 708.904 1382.04 704.659 1383.11C700.434 1384.17 696.127 1381.58 695.066 1377.36C693.997 1373.11 696.587 1368.82 700.812 1367.76C705.057 1366.69 709.344 1369.28 710.412 1373.53L710.424 1373.5Z" fill="#171714"></path> <path d="M804.047 1278.15C805.116 1282.4 802.527 1286.69 798.301 1287.75C794.057 1288.81 789.77 1286.22 788.701 1281.98C787.632 1277.73 790.222 1273.44 794.447 1272.38C798.692 1271.32 802.979 1273.91 804.047 1278.15Z" fill="#171714"></path> <path d="M785.565 1386.28C786.633 1390.53 784.051 1394.83 779.799 1395.88C775.574 1396.94 771.267 1394.36 770.199 1390.11C769.137 1385.89 771.719 1381.58 775.945 1380.52C780.189 1379.45 784.496 1382.04 785.538 1386.27L785.565 1386.28Z" fill="#171714"></path> <path d="M776.164 1445.49C777.233 1449.74 774.651 1454.05 770.399 1455.1C766.173 1456.16 761.867 1453.57 760.798 1449.33C759.73 1445.08 762.319 1440.79 766.544 1439.73C770.789 1438.67 775.096 1441.25 776.137 1445.48L776.164 1445.49Z" fill="#171714"></path> <path d="M864.571 1399.16C865.639 1403.41 863.057 1407.71 858.805 1408.76C854.56 1409.83 850.273 1407.24 849.205 1402.99C848.144 1398.77 850.725 1394.46 854.97 1393.39C859.215 1392.32 863.521 1394.91 864.563 1399.14L864.571 1399.16Z" fill="#171714"></path> <path d="M971.908 1375.76C972.969 1379.99 970.388 1384.29 966.143 1385.36C961.917 1386.42 957.611 1383.84 956.55 1379.61C955.481 1375.37 958.063 1371.06 962.296 1370.02C966.541 1368.95 970.828 1371.54 971.896 1375.79L971.908 1375.76Z" fill="#171714"></path> <path d="M946.239 1603.33C947.307 1607.57 944.725 1611.88 940.493 1612.92C936.248 1613.99 931.961 1611.4 930.892 1607.15C929.831 1602.93 932.413 1598.62 936.638 1597.56C940.883 1596.49 945.17 1599.08 946.231 1603.31L946.239 1603.33Z" fill="#171714"></path> <path d="M1124.05 1504.08C1125.12 1508.33 1122.53 1512.62 1118.3 1513.68C1114.06 1514.75 1109.75 1512.16 1108.71 1507.93C1107.64 1503.68 1110.23 1499.38 1114.48 1498.33C1118.7 1497.27 1123.01 1499.85 1124.08 1504.1L1124.05 1504.08Z" fill="#171714"></path> <path d="M1263.74 1485.96C1264.81 1490.21 1262.22 1494.52 1257.97 1495.57C1253.75 1496.63 1249.44 1494.04 1248.37 1489.8C1247.3 1485.55 1249.89 1481.26 1254.12 1480.2C1258.36 1479.13 1262.67 1481.72 1263.71 1485.95L1263.74 1485.96Z" fill="#171714"></path> <path d="M1431.73 1532.6C1432.8 1536.85 1430.21 1541.16 1425.96 1542.21C1421.72 1543.27 1417.41 1540.69 1416.36 1536.44C1415.3 1532.21 1417.88 1527.9 1422.13 1526.84C1426.37 1525.77 1430.66 1528.36 1431.72 1532.59L1431.73 1532.6Z" fill="#171714"></path> <path d="M1452.06 1588.59C1453.13 1592.83 1450.55 1597.14 1446.3 1598.19C1442.05 1599.26 1437.77 1596.67 1436.7 1592.42C1435.64 1588.19 1438.22 1583.89 1442.46 1582.82C1446.69 1581.76 1451 1584.34 1452.06 1588.57L1452.06 1588.59Z" fill="#171714"></path> <path d="M1420.11 1421.99C1421.18 1426.23 1418.59 1430.52 1414.37 1431.58C1410.12 1432.65 1405.83 1430.06 1404.77 1425.81C1403.7 1421.57 1406.29 1417.28 1410.51 1416.22C1414.76 1415.15 1419.04 1417.74 1420.11 1421.99Z" fill="#171714"></path> <path d="M1349.85 603.97C1350.92 608.216 1348.33 612.503 1344.09 613.571C1339.84 614.639 1335.54 612.056 1334.49 607.802C1333.42 603.556 1336.01 599.269 1340.25 598.201C1344.48 597.14 1348.78 599.724 1349.85 603.97Z" fill="#171714"></path> <path d="M1391.06 457.588C1392.13 461.834 1389.54 466.121 1385.29 467.189C1381.05 468.257 1376.74 465.674 1375.69 461.42C1374.62 457.174 1377.21 452.887 1381.46 451.819C1385.7 450.751 1389.99 453.342 1391.06 457.588Z" fill="#171714"></path> <path d="M1211.52 579.385C1212.59 583.631 1210 587.919 1205.76 588.987C1201.51 590.055 1197.22 587.464 1196.16 583.218C1195.09 578.972 1197.68 574.684 1201.92 573.616C1206.17 572.548 1210.47 575.132 1211.51 579.366L1211.52 579.385Z" fill="#171714"></path> <path d="M1145.49 523.788C1146.56 528.034 1143.97 532.321 1139.74 533.382C1135.5 534.45 1131.19 531.866 1130.14 527.613C1129.07 523.367 1131.66 519.079 1135.91 518.011C1140.13 516.951 1144.44 519.534 1145.5 523.761L1145.49 523.788Z" fill="#171714"></path> <path d="M1072.15 460.003C1073.22 464.249 1070.63 468.536 1066.39 469.604C1062.16 470.665 1057.86 468.081 1056.8 463.855C1055.73 459.609 1058.32 455.321 1062.54 454.26C1066.79 453.192 1071.09 455.776 1072.14 460.029L1072.15 460.003Z" fill="#171714"></path> <path d="M937.954 647.238C939.022 651.484 936.433 655.771 932.188 656.839C927.963 657.9 923.656 655.316 922.595 651.09C921.527 646.843 924.116 642.556 928.341 641.495C932.586 640.427 936.873 643.018 937.942 647.264L937.954 647.238Z" fill="#171714"></path> <path d="M961.469 604.492C962.537 608.738 959.948 613.026 955.703 614.094C951.478 615.154 947.171 612.571 946.11 608.344C945.042 604.098 947.624 599.791 951.856 598.75C956.101 597.682 960.408 600.266 961.457 604.519L961.469 604.492Z" fill="#171714"></path> <path d="M1270.05 1572.62C1271.12 1576.86 1268.54 1581.17 1264.31 1582.21C1260.06 1583.28 1255.75 1580.7 1254.7 1576.44C1253.64 1572.22 1256.23 1567.91 1260.47 1566.84C1264.7 1565.78 1269 1568.36 1270.06 1572.59L1270.05 1572.62Z" fill="#171714"></path> <path d="M1195.99 1569.05C1197.05 1573.28 1194.47 1577.58 1190.22 1578.65C1186 1579.71 1181.69 1577.13 1180.63 1572.9C1179.56 1568.66 1182.14 1564.35 1186.38 1563.31C1190.62 1562.24 1194.93 1564.82 1195.98 1569.08L1195.99 1569.05Z" fill="#171714"></path> <path d="M833.2 545.343C834.268 549.589 831.679 553.876 827.454 554.937C823.209 556.005 818.922 553.414 817.853 549.168C816.785 544.922 819.374 540.634 823.599 539.574C827.844 538.506 832.131 541.097 833.2 545.343Z" fill="#171714"></path> <path d="M773.749 638.705C774.817 642.951 772.228 647.238 767.983 648.306C763.738 649.374 759.451 646.783 758.383 642.537C757.314 638.291 759.903 634.004 764.148 632.936C768.393 631.868 772.699 634.451 773.749 638.705Z" fill="#171714"></path> <path d="M776.622 740.151C777.69 744.397 775.101 748.685 770.876 749.745C766.631 750.813 762.344 748.222 761.275 743.976C760.207 739.73 762.796 735.443 767.021 734.382C771.266 733.314 775.553 735.905 776.614 740.132L776.622 740.151Z" fill="#171714"></path> <path d="M631.981 793.199C633.05 797.445 630.46 801.732 626.235 802.793C621.99 803.861 617.703 801.27 616.635 797.024C615.566 792.778 618.155 788.49 622.4 787.422C626.625 786.362 630.932 788.945 631.993 793.172L631.981 793.199Z" fill="#171714"></path> <path d="M623.239 1032.24C624.307 1036.49 621.718 1040.77 617.473 1041.84C613.228 1042.91 608.941 1040.32 607.873 1036.07C606.804 1031.83 609.394 1027.54 613.638 1026.47C617.883 1025.4 622.17 1027.99 623.239 1032.24Z" fill="#171714"></path> <path d="M603.028 1140.81C604.097 1145.05 601.507 1149.34 597.282 1150.4C593.037 1151.47 588.75 1148.88 587.681 1144.63C586.613 1140.39 589.202 1136.1 593.427 1135.04C597.672 1133.97 601.959 1136.56 603.028 1140.81Z" fill="#171714"></path> <path d="M959.545 500.522C960.614 504.768 958.025 509.056 953.78 510.124C949.555 511.184 945.248 508.601 944.187 504.374C943.118 500.128 945.708 495.841 949.933 494.78C954.178 493.712 958.484 496.296 959.533 500.549L959.545 500.522Z" fill="#171714"></path> <path d="M2096.07 1459.31L1414.53 1423.39" stroke="#B2B2B0" stroke-width="0.237737" stroke-miterlimit="10"></path> <path d="M760.807 1449.35L607.926 1469" stroke="#B2B2B0" stroke-width="0.237737" stroke-miterlimit="10"></path> <path d="M600.855 1470.77L684.51 1625.04" stroke="#B2B2B0" stroke-width="0.237737" stroke-miterlimit="10"></path> <path d="M684.511 1625.04L625.055 1647.42" stroke="#B2B2B0" stroke-width="0.237737" stroke-miterlimit="10"></path> <path d="M1069.52 464.8L1167.57 387.019" stroke="#B2B2B0" stroke-width="0.237737" stroke-miterlimit="10"></path> <path d="M1167.57 387.019L1089.57 296.667" stroke="#B2B2B0" stroke-width="0.237737" stroke-miterlimit="10"></path> <path d="M1089.57 296.668L1069.51 464.8" stroke="#B2B2B0" stroke-width="0.237737" stroke-miterlimit="10"></path> <path d="M1089.57 296.667L1217.41 190.892" stroke="#B2B2B0" stroke-width="0.237737" stroke-miterlimit="10"></path> <path d="M632.737 1645.5C633.805 1649.75 631.216 1654.04 626.991 1655.1C622.746 1656.17 618.439 1653.58 617.39 1649.33C616.329 1645.1 618.911 1640.8 623.156 1639.73C627.381 1638.67 631.687 1641.25 632.749 1645.48L632.737 1645.5Z" fill="#171714"></path> <path d="M692.184 1623.11C693.253 1627.35 690.671 1631.66 686.438 1632.7C682.193 1633.77 677.906 1631.18 676.838 1626.93C675.776 1622.7 678.358 1618.4 682.584 1617.34C686.828 1616.27 691.115 1618.86 692.177 1623.09L692.184 1623.11Z" fill="#171714"></path> <path d="M608.539 1468.85C609.608 1473.1 607.026 1477.41 602.793 1478.45C598.548 1479.52 594.261 1476.92 593.193 1472.68C592.124 1468.43 594.706 1464.13 598.958 1463.08C603.203 1462.01 607.49 1464.6 608.559 1468.85L608.539 1468.85Z" fill="#171714"></path> <path d="M833.2 545.343C834.268 549.589 831.679 553.876 827.454 554.937C823.209 556.005 818.922 553.414 817.853 549.168C816.785 544.922 819.374 540.634 823.599 539.574C827.844 538.506 832.131 541.097 833.2 545.343Z" fill="#171714"></path> <path d="M773.749 638.705C774.817 642.951 772.228 647.238 767.983 648.306C763.738 649.374 759.451 646.783 758.383 642.537C757.314 638.291 759.903 634.004 764.148 632.936C768.393 631.868 772.699 634.451 773.749 638.705Z" fill="#171714"></path> <path d="M776.622 740.151C777.69 744.397 775.101 748.685 770.876 749.745C766.631 750.813 762.344 748.222 761.275 743.976C760.207 739.73 762.796 735.443 767.021 734.382C771.266 733.314 775.553 735.905 776.614 740.132L776.622 740.151Z" fill="#171714"></path> <path d="M631.981 793.199C633.05 797.445 630.46 801.732 626.235 802.793C621.99 803.861 617.703 801.27 616.635 797.024C615.566 792.778 618.155 788.49 622.4 787.422C626.625 786.362 630.932 788.945 631.993 793.172L631.981 793.199Z" fill="#171714"></path> <path d="M623.239 1032.24C624.307 1036.49 621.718 1040.77 617.473 1041.84C613.228 1042.91 608.941 1040.32 607.873 1036.07C606.804 1031.83 609.394 1027.54 613.638 1026.47C617.883 1025.4 622.17 1027.99 623.239 1032.24Z" fill="#171714"></path> <path d="M603.028 1140.81C604.097 1145.05 601.507 1149.34 597.282 1150.4C593.037 1151.47 588.75 1148.88 587.681 1144.63C586.613 1140.39 589.202 1136.1 593.427 1135.04C597.672 1133.97 601.959 1136.56 603.028 1140.81Z" fill="#171714"></path> <path d="M959.545 500.522C960.614 504.768 958.025 509.056 953.78 510.124C949.555 511.184 945.248 508.601 944.187 504.374C943.118 500.128 945.708 495.841 949.933 494.78C954.178 493.712 958.484 496.296 959.533 500.549L959.545 500.522Z" fill="#171714"></path> <path d="M1171.72 381.867C1174.83 384.931 1174.88 389.945 1171.82 393.055C1168.75 396.165 1163.74 396.214 1160.63 393.15C1157.52 390.086 1157.47 385.071 1160.53 381.961C1163.6 378.851 1168.61 378.803 1171.72 381.867Z" fill="#171714"></path> <path d="M1223.74 186.553C1226.85 189.617 1226.9 194.631 1223.84 197.741C1220.78 200.851 1215.76 200.9 1212.65 197.836C1209.54 194.772 1209.5 189.757 1212.56 186.647C1215.62 183.537 1220.63 183.489 1223.74 186.553Z" fill="#171714"></path> <path d="M1095.18 291.023C1098.29 294.087 1098.34 299.102 1095.28 302.212C1092.21 305.322 1087.2 305.37 1084.09 302.306C1080.98 299.242 1080.93 294.227 1083.99 291.117C1087.06 288.007 1092.07 287.959 1095.18 291.023Z" fill="#171714"></path> </g> <g clip-path="url(#clip1_148_1567)"> <path d="M1088.75 2097.62L1467.27 1605.43" stroke="#B2B2B0" stroke-width="0.237737" stroke-miterlimit="10"></path> <path d="M1097.14 2096.11L1275.31 1713.61" stroke="#B2B2B0" stroke-width="0.237737" stroke-miterlimit="10"></path> <path d="M1098.65 2104.51L1091.19 1544.22" stroke="#B2B2B0" stroke-width="0.237737" stroke-miterlimit="10"></path> <path d="M1098.65 2104.51L967.046 1267.21" stroke="#B2B2B0" stroke-width="0.237737" stroke-miterlimit="10"></path> <path d="M1097.14 2096.11L1189.99 1499.22" stroke="#B2B2B0" stroke-width="0.237737" stroke-miterlimit="10"></path> <path d="M1097.14 2096.11L1619.43 1684.49" stroke="#B2B2B0" stroke-width="0.237737" stroke-miterlimit="10"></path> <path d="M1095.63 2087.71C1100.25 2086.88 1104.7 2089.97 1105.54 2094.6C1106.38 2099.24 1103.28 2103.67 1098.65 2104.51C1094.03 2105.34 1089.59 2102.26 1088.75 2097.62C1087.91 2092.99 1091.01 2088.54 1095.63 2087.71Z" fill="#171714"></path> <path d="M727.49 1166.24L904.029 1212.21" stroke="#B2B2B0" stroke-width="0.237737" stroke-miterlimit="10"></path> <path d="M727.491 1166.24L633.191 1014.27" stroke="#B2B2B0" stroke-width="0.237737" stroke-miterlimit="10"></path> <path d="M722.27 1159.43C725.987 1156.54 731.366 1157.24 734.232 1160.97C737.119 1164.69 736.44 1170.06 732.694 1172.94C728.977 1175.82 723.598 1175.12 720.732 1171.39C717.845 1167.68 718.524 1162.3 722.27 1159.43Z" fill="#171714"></path> <path d="M630.493 1006.6C634.21 1003.71 639.589 1004.41 642.455 1008.14C645.342 1011.86 644.663 1017.23 640.917 1020.1C637.199 1022.99 631.821 1022.29 628.955 1018.56C626.068 1014.84 626.747 1009.47 630.493 1006.6Z" fill="#171714"></path> <path d="M1091.69 673.035L997.391 521.07" stroke="#B2B2B0" stroke-width="0.237737" stroke-miterlimit="10"></path> <path d="M994.69 513.391C998.407 510.504 1003.79 511.205 1006.65 514.932C1009.54 518.651 1008.86 524.023 1005.11 526.897C1001.4 529.783 996.018 529.082 993.152 525.355C990.265 521.637 990.944 516.265 994.69 513.391Z" fill="#171714"></path> <path d="M1100.32 1206.91C1100.07 1207.01 1099.82 1207.1 1099.56 1207.2L1220.14 1305.02C1220.39 1304.93 1220.64 1304.83 1220.89 1304.73L1100.32 1206.91Z" fill="white"></path> <path d="M1096.64 1664.12C1096.89 1664.22 1097.14 1664.31 1097.39 1664.41L1221.16 1318.91C1220.89 1318.84 1220.65 1318.77 1220.39 1318.65L1096.64 1664.12Z" fill="white"></path> <path d="M1174.35 1674.04C1174.32 1673.77 1174.26 1673.5 1174.26 1673.24L1100.97 1674.51C1100.83 1674.78 1100.7 1675.07 1100.52 1675.33L1174.35 1674.04Z" fill="white"></path> <path d="M1181.18 1680.41L1203.93 1916.78C1204.14 1916.53 1204.42 1916.33 1204.68 1916.13L1182 1680.43C1182 1680.43 1181.9 1680.47 1181.84 1680.44C1181.6 1680.44 1181.39 1680.4 1181.17 1680.39L1181.18 1680.41Z" fill="white"></path> <path d="M1104.6 1200.04C1104.53 1195.92 1101.11 1192.62 1096.99 1192.71C1092.87 1192.77 1089.59 1196.19 1089.66 1200.31C1089.73 1204.44 1093.14 1207.72 1097.27 1207.65C1098.07 1207.63 1098.82 1207.46 1099.54 1207.21C1099.8 1207.11 1100.05 1207.04 1100.3 1206.92C1102.88 1205.72 1104.65 1203.07 1104.6 1200.04Z" fill="white"></path> <path d="M1223.16 1304.32C1222.35 1304.34 1221.6 1304.51 1220.88 1304.76C1220.63 1304.86 1220.37 1304.93 1220.13 1305.05C1217.54 1306.26 1215.77 1308.9 1215.83 1311.93C1215.89 1314.98 1217.77 1317.57 1220.4 1318.67C1220.65 1318.77 1220.92 1318.84 1221.17 1318.93C1221.9 1319.15 1222.62 1319.29 1223.44 1319.29C1227.57 1319.22 1230.84 1315.81 1230.77 1311.68C1230.71 1307.55 1227.29 1304.28 1223.17 1304.34L1223.16 1304.32Z" fill="white"></path> <path d="M1094.18 1663.72C1090.05 1663.78 1086.78 1667.2 1086.84 1671.32C1086.91 1675.45 1090.33 1678.75 1094.45 1678.66C1097 1678.62 1099.21 1677.3 1100.52 1675.33C1100.68 1675.07 1100.81 1674.78 1100.97 1674.51C1101.49 1673.47 1101.8 1672.29 1101.78 1671.05C1101.72 1668.08 1099.95 1665.56 1097.42 1664.42C1097.18 1664.29 1096.93 1664.2 1096.66 1664.13C1095.89 1663.88 1095.06 1663.71 1094.2 1663.71L1094.18 1663.72Z" fill="white"></path> <path d="M1181.18 1680.41C1181.4 1680.42 1181.6 1680.46 1181.85 1680.46C1181.89 1680.45 1181.94 1680.45 1182.01 1680.45C1186.05 1680.29 1189.25 1676.93 1189.18 1672.86C1189.11 1668.73 1185.69 1665.43 1181.57 1665.52C1177.45 1665.59 1174.15 1669.01 1174.24 1673.13C1174.26 1673.17 1174.26 1673.19 1174.26 1673.24C1174.27 1673.52 1174.32 1673.77 1174.35 1674.04C1174.84 1677.51 1177.67 1680.14 1181.18 1680.41Z" fill="white"></path> <path d="M1203.91 1916.81C1202.59 1918.18 1201.79 1920.05 1201.82 1922.12C1201.89 1926.25 1205.31 1929.55 1209.43 1929.46C1213.55 1929.39 1216.83 1925.98 1216.76 1921.85C1216.69 1917.73 1213.27 1914.43 1209.15 1914.52C1207.44 1914.55 1205.91 1915.18 1204.65 1916.17C1204.39 1916.36 1204.14 1916.58 1203.89 1916.82L1203.91 1916.81Z" fill="white"></path> <path d="M1222.55 1190.17C1223.05 1189.98 1223.58 1189.78 1224.1 1189.65L1221.31 1184.36L1222.55 1190.17Z" fill="white"></path> <path d="M1215.84 1197.95C1215.95 1197.55 1216.1 1197.13 1216.26 1196.73L569.273 905.447C569.134 905.836 568.953 906.241 568.764 906.626L1215.84 1197.95Z" fill="white"></path> <path d="M1220.15 1191.6L666.325 622.471C666.075 622.759 665.875 623.052 665.589 623.305C665.547 623.321 665.513 623.358 665.458 623.403L1219.12 1192.37C1219.44 1192.08 1219.79 1191.85 1220.13 1191.6L1220.15 1191.6Z" fill="white"></path> <path d="M1221.29 1184.37L1224.08 1189.66C1224.5 1189.55 1224.91 1189.44 1225.34 1189.37L1220.33 1179.84L1121.71 718.373C1121.34 718.588 1120.95 718.761 1120.56 718.935L1218.18 1175.74L1001.86 764.848C1001.49 765.084 1001.13 765.249 1000.74 765.444L1219.13 1180.3L1221.37 1190.77C1221.74 1190.55 1222.12 1190.36 1222.52 1190.21L1221.28 1184.4L1221.29 1184.37Z" fill="white"></path> <path d="M1218.38 1208.93C1222.62 1213.66 1229.83 1213.93 1234.5 1209.53C1239.14 1205.11 1239.5 1197.7 1235.26 1192.96C1232.66 1190.05 1228.94 1188.86 1225.36 1189.36C1224.93 1189.43 1224.52 1189.54 1224.11 1189.65C1223.59 1189.8 1223.07 1189.95 1222.55 1190.17C1222.16 1190.32 1221.77 1190.52 1221.4 1190.73C1220.96 1190.97 1220.55 1191.27 1220.15 1191.6C1219.81 1191.84 1219.47 1192.07 1219.15 1192.36C1217.83 1193.61 1216.89 1195.12 1216.28 1196.72C1216.12 1197.12 1215.99 1197.53 1215.86 1197.94C1214.85 1201.71 1215.65 1205.87 1218.38 1208.93Z" fill="white"></path> <path d="M550.231 909.352C554.467 914.09 561.692 914.349 566.335 909.931C567.377 908.956 568.143 907.823 568.756 906.605C568.945 906.22 569.105 905.823 569.265 905.426C570.769 901.395 570.102 896.706 567.097 893.368C562.86 888.63 555.635 888.371 550.992 892.789C546.32 897.193 545.994 904.614 550.231 909.352Z" fill="white"></path> <path d="M666.325 622.472C670.228 618.002 670.333 611.194 666.35 606.742C662.114 602.004 654.889 601.746 650.246 606.163C645.582 610.588 645.248 617.988 649.485 622.726C653.684 627.43 660.817 627.7 665.479 623.395C665.521 623.379 665.576 623.334 665.61 623.297C665.889 623.023 666.088 622.73 666.346 622.464L666.325 622.472Z" fill="white"></path> <path d="M1001.88 764.841C1002.47 764.446 1003.08 764.022 1003.62 763.501C1008.29 759.076 1008.62 751.676 1004.39 746.938C1000.15 742.2 992.945 741.934 988.281 746.359C983.609 750.763 983.283 758.184 987.52 762.922C990.958 766.766 996.364 767.6 1000.77 765.436C1001.15 765.242 1001.52 765.076 1001.88 764.841Z" fill="white"></path> <path d="M1123.64 716.891C1128.31 712.487 1128.64 705.066 1124.4 700.328C1120.16 695.59 1112.96 695.323 1108.3 699.748C1103.63 704.174 1103.3 711.573 1107.53 716.312C1110.93 720.1 1116.2 720.962 1120.56 718.934C1120.95 718.761 1121.34 718.588 1121.71 718.373C1122.39 717.967 1123.03 717.485 1123.65 716.912L1123.64 716.891Z" fill="white"></path> <path d="M937.54 832.356L927.865 1095.59" stroke="#171714" stroke-width="0.237737" stroke-miterlimit="10"></path> <path d="M927.866 1095.59L1099.87 967.497" stroke="#171714" stroke-width="0.237737" stroke-miterlimit="10"></path> <path d="M1100.75 971.048L1090.4 673.119" stroke="#171714" stroke-width="0.237737" stroke-miterlimit="10"></path> <path d="M937.104 838.114L1180.67 746.925" stroke="#171714" stroke-width="0.237737" stroke-miterlimit="10"></path> <path d="M1180.67 746.925L1290.4 521.015" stroke="#171714" stroke-width="0.237737" stroke-miterlimit="10"></path> <path d="M1288.63 521.525L1536.26 552.159" stroke="#171714" stroke-width="0.237737" stroke-miterlimit="10"></path> <path d="M1471.77 1600.18L1275.31 1713.61" stroke="#171714" stroke-width="0.237737" stroke-miterlimit="10"></path> <path d="M1275.32 1713.61L1187.65 1491.72" stroke="#171714" stroke-width="0.237737" stroke-miterlimit="10"></path> <path d="M1187.64 1491.72L1021.81 1463.3" stroke="#171714" stroke-width="0.237737" stroke-miterlimit="10"></path> <path d="M1021.81 1463.3L1051.07 1240.52" stroke="#171714" stroke-width="0.237737" stroke-miterlimit="10"></path> <path d="M1051.07 1240.52L927.863 1095.59" stroke="#171714" stroke-width="0.237737" stroke-miterlimit="10"></path> <path d="M1100.75 971.048L967.044 1267.21" stroke="#171714" stroke-width="0.237737" stroke-miterlimit="10"></path> <path d="M967.045 1267.21L1122.69 1360.56" stroke="#171714" stroke-width="0.237737" stroke-miterlimit="10"></path> <path d="M1122.69 1360.56L1091.19 1544.22" stroke="#171714" stroke-width="0.237737" stroke-miterlimit="10"></path> <path d="M1089.87 1538.89L1305.45 1464.15" stroke="#171714" stroke-width="0.237737" stroke-miterlimit="10"></path> <path d="M1305.45 1464.15L1542.91 1673.1" stroke="#171714" stroke-width="0.237737" stroke-miterlimit="10"></path> <path d="M1563.07 609.458L1409.96 477.865" stroke="#171714" stroke-width="0.237737" stroke-miterlimit="10"></path> <path d="M1409.96 477.865L1292.22 633.955" stroke="#171714" stroke-width="0.237737" stroke-miterlimit="10"></path> <path d="M1292.22 633.955L1090.25 673.487" stroke="#171714" stroke-width="0.237737" stroke-miterlimit="10"></path> <path d="M992.527 939.034L1090.19 779.061" stroke="#171714" stroke-width="0.237737" stroke-miterlimit="10"></path> <path d="M992.527 939.033L937.104 838.114" stroke="#171714" stroke-width="0.237737" stroke-miterlimit="10"></path> <path d="M1090.4 673.119L1153.33 569.953" stroke="#171714" stroke-width="0.237737" stroke-miterlimit="10"></path> <path d="M1265.74 681.795L1153.33 569.953" stroke="#171714" stroke-width="0.237737" stroke-miterlimit="10"></path> <path d="M992.528 939.033L927.865 1095.59" stroke="#171714" stroke-width="0.237737" stroke-miterlimit="10"></path> <path d="M1000.98 1185.75L904.84 1209.81" stroke="#171714" stroke-width="0.237737" stroke-miterlimit="10"></path> <path d="M904.84 1209.81L967.046 1267.21" stroke="#171714" stroke-width="0.237737" stroke-miterlimit="10"></path> <path d="M1091.19 1544.22L1281.83 1713.14" stroke="#171714" stroke-width="0.237737" stroke-miterlimit="10"></path> <path d="M1409.96 477.865L1754.93 474.7" stroke="#171714" stroke-width="0.237737" stroke-miterlimit="10"></path> <path d="M1265.74 681.794L1487.78 548.469" stroke="#171714" stroke-width="0.237737" stroke-miterlimit="10"></path> <path d="M1238.16 643.826C1239.31 648.401 1236.52 653.021 1231.97 654.164C1227.39 655.315 1222.77 652.523 1221.62 647.948C1220.47 643.373 1223.26 638.753 1227.83 637.602C1232.39 636.459 1237.03 639.243 1238.18 643.818L1238.16 643.826Z" fill="#171714"></path> <path d="M1187.6 745.543C1188.75 750.118 1185.96 754.738 1181.41 755.881C1176.84 757.032 1172.22 754.24 1171.07 749.665C1169.91 745.09 1172.7 740.47 1177.26 739.327C1181.83 738.176 1186.45 740.968 1187.6 745.543Z" fill="#171714"></path> <path d="M1000.2 934.058C1001.35 938.633 998.557 943.253 993.983 944.404C989.409 945.555 984.79 942.763 983.638 938.188C982.487 933.613 985.277 928.993 989.851 927.842C994.424 926.691 999.065 929.475 1000.2 934.058Z" fill="#171714"></path> <path d="M1107.36 967.943C1108.51 972.518 1105.72 977.138 1101.16 978.28C1096.59 979.431 1091.97 976.639 1090.82 972.064C1089.67 967.489 1092.46 962.869 1097.01 961.726C1101.59 960.576 1106.2 963.367 1107.36 967.943Z" fill="#171714"></path> <path d="M1012.63 1183.86C1013.79 1188.44 1011 1193.06 1006.42 1194.21C1001.85 1195.36 997.229 1192.56 996.078 1187.99C994.926 1183.41 997.716 1178.79 1002.29 1177.64C1006.86 1176.49 1011.5 1179.28 1012.63 1183.84L1012.63 1183.86Z" fill="#171714"></path> <path d="M975.325 1265.15C976.476 1269.72 973.686 1274.34 969.133 1275.49C964.559 1276.64 959.94 1273.84 958.789 1269.27C957.637 1264.69 960.427 1260.07 964.98 1258.93C969.554 1257.78 974.173 1260.57 975.317 1265.13L975.325 1265.15Z" fill="#171714"></path> <path d="M1059.35 1238.46C1060.5 1243.03 1057.71 1247.65 1053.16 1248.8C1048.58 1249.95 1043.96 1247.15 1042.81 1242.58C1041.66 1238 1044.45 1233.38 1049 1232.24C1053.58 1231.09 1058.2 1233.88 1059.34 1238.44L1059.35 1238.46Z" fill="#171714"></path> <path d="M1049.59 1311.12C1050.74 1315.69 1047.95 1320.31 1043.4 1321.46C1038.82 1322.61 1034.18 1319.82 1033.06 1315.26C1031.91 1310.69 1034.69 1306.05 1039.27 1304.92C1043.83 1303.77 1048.47 1306.56 1049.62 1311.13L1049.59 1311.12Z" fill="#171714"></path> <path d="M1030.09 1461.24C1031.24 1465.81 1028.45 1470.43 1023.87 1471.58C1019.32 1472.73 1014.68 1469.94 1013.54 1465.39C1012.38 1460.81 1015.17 1456.19 1019.73 1455.05C1024.3 1453.9 1028.92 1456.69 1030.07 1461.27L1030.09 1461.24Z" fill="#171714"></path> <path d="M1130.97 1358.5C1132.12 1363.07 1129.33 1367.69 1124.77 1368.83C1120.2 1369.99 1115.58 1367.19 1114.43 1362.62C1113.28 1358.04 1116.07 1353.42 1120.62 1352.28C1125.19 1351.13 1129.81 1353.92 1130.97 1358.5Z" fill="#171714"></path> <path d="M1111.05 1475.01C1112.2 1479.58 1109.42 1484.22 1104.84 1485.35C1100.28 1486.49 1095.64 1483.71 1094.49 1479.14C1093.35 1474.58 1096.13 1469.94 1100.68 1468.8C1105.26 1467.65 1109.9 1470.43 1111.02 1474.99L1111.05 1475.01Z" fill="#171714"></path> <path d="M1100.92 1538.81C1102.07 1543.38 1099.29 1548.03 1094.71 1549.16C1090.16 1550.3 1085.52 1547.51 1084.37 1542.94C1083.21 1538.36 1086.01 1533.74 1090.56 1532.6C1095.13 1531.45 1099.77 1534.23 1100.89 1538.8L1100.92 1538.81Z" fill="#171714"></path> <path d="M1196.18 1488.88C1197.33 1493.46 1194.55 1498.1 1189.97 1499.23C1185.4 1500.38 1180.78 1497.59 1179.62 1493.01C1178.48 1488.46 1181.26 1483.82 1185.84 1482.67C1190.41 1481.52 1195.05 1484.3 1196.17 1488.86L1196.18 1488.88Z" fill="#171714"></path> <path d="M1311.84 1463.67C1312.98 1468.22 1310.2 1472.86 1305.63 1474.02C1301.07 1475.16 1296.43 1472.37 1295.29 1467.82C1294.14 1463.24 1296.92 1458.6 1301.48 1457.48C1306.06 1456.33 1310.67 1459.12 1311.83 1463.7L1311.84 1463.67Z" fill="#171714"></path> <path d="M1284.18 1708.88C1285.33 1713.45 1282.55 1718.09 1277.99 1719.21C1273.41 1720.36 1268.79 1717.57 1267.64 1713C1266.5 1708.44 1269.28 1703.8 1273.83 1702.66C1278.41 1701.51 1283.03 1704.3 1284.17 1708.85L1284.18 1708.88Z" fill="#171714"></path> <path d="M1419.85 476.936C1421.01 481.511 1418.22 486.131 1413.64 487.281C1409.09 488.424 1404.45 485.64 1403.31 481.086C1402.15 476.511 1404.94 471.891 1409.5 470.748C1414.07 469.598 1418.71 472.381 1419.84 476.965L1419.85 476.936Z" fill="#171714"></path> <path d="M1275.25 678.683C1276.4 683.258 1273.61 687.878 1269.04 689.028C1264.49 690.171 1259.85 687.387 1258.7 682.833C1257.55 678.258 1260.34 673.638 1264.89 672.495C1269.47 671.345 1274.09 674.137 1275.24 678.712L1275.25 678.683Z" fill="#171714"></path> <path d="M1300.59 632.624C1301.74 637.2 1298.95 641.819 1294.38 642.97C1289.83 644.113 1285.19 641.329 1284.04 636.775C1282.89 632.2 1285.67 627.559 1290.23 626.437C1294.81 625.287 1299.45 628.07 1300.58 632.653L1300.59 632.624Z" fill="#171714"></path> <path d="M1162.38 568.89C1163.53 573.465 1160.74 578.085 1156.19 579.228C1151.61 580.379 1146.99 577.587 1145.84 573.012C1144.69 568.437 1147.48 563.817 1152.03 562.674C1156.61 561.523 1161.23 564.315 1162.38 568.89Z" fill="#171714"></path> <path d="M1098.32 669.488C1099.47 674.064 1096.68 678.683 1092.11 679.834C1087.53 680.985 1082.91 678.193 1081.76 673.618C1080.61 669.043 1083.4 664.423 1087.98 663.272C1092.55 662.122 1097.19 664.905 1098.32 669.488Z" fill="#171714"></path> <path d="M1101.41 778.798C1102.57 783.373 1099.78 787.993 1095.22 789.135C1090.65 790.286 1086.03 787.494 1084.88 782.919C1083.73 778.344 1086.52 773.724 1091.07 772.581C1095.64 771.431 1100.26 774.222 1101.41 778.777L1101.41 778.798Z" fill="#171714"></path> <path d="M945.565 835.956C946.716 840.532 943.926 845.151 939.373 846.294C934.8 847.445 930.18 844.653 929.029 840.078C927.877 835.503 930.667 830.883 935.241 829.732C939.794 828.59 944.434 831.373 945.578 835.927L945.565 835.956Z" fill="#171714"></path> <path d="M936.144 1093.53C937.296 1098.1 934.506 1102.72 929.932 1103.87C925.358 1105.02 920.739 1102.23 919.587 1097.65C918.436 1093.08 921.226 1088.46 925.8 1087.31C930.374 1086.16 934.993 1088.95 936.144 1093.53Z" fill="#171714"></path> <path d="M914.368 1210.51C915.519 1215.08 912.729 1219.7 908.176 1220.84C903.602 1221.99 898.983 1219.2 897.832 1214.63C896.68 1210.05 899.47 1205.43 904.023 1204.29C908.597 1203.14 913.216 1205.93 914.368 1210.51Z" fill="#171714"></path> <path d="M1298.52 520.596C1299.67 525.171 1296.88 529.791 1292.31 530.942C1287.75 532.084 1283.11 529.301 1281.97 524.746C1280.82 520.171 1283.61 515.551 1288.16 514.409C1292.74 513.258 1297.38 516.042 1298.51 520.625L1298.52 520.596Z" fill="#171714"></path> <path d="M1084.37 1542.96L919.645 1564.13" stroke="#B2B2B0" stroke-width="0.237737" stroke-miterlimit="10"></path> <path d="M912.025 1566.04L1002.16 1732.27" stroke="#B2B2B0" stroke-width="0.237737" stroke-miterlimit="10"></path> <path d="M1002.16 1732.27L938.1 1756.39" stroke="#B2B2B0" stroke-width="0.237737" stroke-miterlimit="10"></path> <path d="M1417.01 482.105L1522.67 398.296" stroke="#B2B2B0" stroke-width="0.237737" stroke-miterlimit="10"></path> <path d="M1438.62 300.941L1417.01 482.105" stroke="#B2B2B0" stroke-width="0.237737" stroke-miterlimit="10"></path> <path d="M1438.62 300.941L1576.37 186.967" stroke="#B2B2B0" stroke-width="0.237737" stroke-miterlimit="10"></path> <path d="M946.379 1754.32C947.531 1758.9 944.741 1763.52 940.188 1764.66C935.614 1765.81 930.974 1763.03 929.843 1758.44C928.7 1753.89 931.482 1749.25 936.056 1748.1C940.609 1746.95 945.249 1749.74 946.392 1754.29L946.379 1754.32Z" fill="#171714"></path> <path d="M1010.43 1730.19C1011.59 1734.76 1008.8 1739.4 1004.24 1740.52C999.669 1741.67 995.049 1738.88 993.898 1734.31C992.754 1729.75 995.536 1725.11 1000.09 1723.97C1004.66 1722.82 1009.28 1725.61 1010.43 1730.17L1010.43 1730.19Z" fill="#171714"></path> <path d="M920.305 1563.98C921.456 1568.55 918.674 1573.19 914.113 1574.32C909.539 1575.47 904.92 1572.67 903.769 1568.1C902.617 1563.52 905.399 1558.88 909.981 1557.75C914.555 1556.6 919.174 1559.39 920.326 1563.97L920.305 1563.98Z" fill="#171714"></path> <path d="M1162.38 568.89C1163.53 573.465 1160.74 578.085 1156.19 579.228C1151.61 580.379 1146.99 577.587 1145.84 573.012C1144.69 568.437 1147.48 563.817 1152.03 562.674C1156.61 561.523 1161.23 564.315 1162.38 568.89Z" fill="#171714"></path> <path d="M1098.32 669.488C1099.47 674.064 1096.68 678.683 1092.11 679.834C1087.53 680.985 1082.91 678.193 1081.76 673.618C1080.61 669.043 1083.4 664.423 1087.98 663.272C1092.55 662.122 1097.19 664.905 1098.32 669.488Z" fill="#171714"></path> <path d="M1101.41 778.798C1102.57 783.373 1099.78 787.993 1095.22 789.135C1090.65 790.286 1086.03 787.494 1084.88 782.919C1083.73 778.344 1086.52 773.724 1091.07 772.581C1095.64 771.431 1100.26 774.222 1101.41 778.777L1101.41 778.798Z" fill="#171714"></path> <path d="M945.565 835.956C946.716 840.532 943.926 845.151 939.373 846.294C934.8 847.445 930.18 844.653 929.029 840.078C927.877 835.503 930.667 830.883 935.241 829.732C939.794 828.59 944.434 831.373 945.578 835.927L945.565 835.956Z" fill="#171714"></path> <path d="M936.144 1093.53C937.296 1098.1 934.506 1102.72 929.932 1103.87C925.358 1105.02 920.739 1102.23 919.587 1097.65C918.436 1093.08 921.226 1088.46 925.8 1087.31C930.374 1086.16 934.993 1088.95 936.144 1093.53Z" fill="#171714"></path> <path d="M914.368 1210.51C915.519 1215.08 912.729 1219.7 908.176 1220.84C903.602 1221.99 898.983 1219.2 897.832 1214.63C896.68 1210.05 899.47 1205.43 904.023 1204.29C908.597 1203.14 913.216 1205.93 914.368 1210.51Z" fill="#171714"></path> <path d="M1298.52 520.596C1299.67 525.171 1296.88 529.791 1292.31 530.942C1287.75 532.084 1283.11 529.301 1281.97 524.746C1280.82 520.171 1283.61 515.551 1288.16 514.409C1292.74 513.258 1297.38 516.042 1298.51 520.625L1298.52 520.596Z" fill="#171714"></path> <path d="M1444.66 294.859C1448.01 298.16 1448.07 303.564 1444.77 306.915C1441.47 310.266 1436.06 310.318 1432.71 307.016C1429.36 303.715 1429.31 298.312 1432.61 294.961C1435.91 291.61 1441.31 291.558 1444.66 294.859Z" fill="#171714"></path> </g> </g> <defs> <linearGradient id="paint0_linear_148_1567" x1="1167.5" y1="874.567" x2="1438" y2="874.567" gradientUnits="userSpaceOnUse"> <stop stop-color="white"></stop> <stop offset="1" stop-color="white" stop-opacity="0"></stop> </linearGradient> <clipPath id="clip0_148_1567"> <rect width="1512.7" height="1513.99" fill="white" transform="translate(160 588.756) rotate(-20.9454)"></rect> </clipPath> <clipPath id="clip1_148_1567"> <rect width="1629.94" height="1631.33" fill="white" transform="translate(437 615.668) rotate(-20.9454)"></rect> </clipPath> </defs> </svg> 