<?xml version="1.0" standalone="no"?>
<!DOCTYPE svg PUBLIC "-//W3C//DTD SVG 20010904//EN"
 "http://www.w3.org/TR/2001/REC-SVG-20010904/DTD/svg10.dtd">
<svg version="1.0" xmlns="http://www.w3.org/2000/svg"
 width="128.000000pt" height="128.000000pt" viewBox="0 0 128.000000 128.000000"
 preserveAspectRatio="xMidYMid meet">

<g transform="translate(0.000000,128.000000) scale(0.100000,-0.100000)"
fill="#41C9E2" stroke="none">
<path d="M725 1241 c-33 -9 -75 -25 -94 -35 -55 -29 -118 -102 -140 -162 -25
-65 -26 -110 -6 -336 l14 -167 -90 -222 c-96 -236 -100 -255 -54 -285 21 -14
30 -14 54 -5 23 10 44 44 117 186 49 96 92 175 96 175 3 0 8 -6 10 -12 2 -7
41 -86 86 -176 66 -129 89 -165 110 -173 34 -13 68 2 84 35 9 22 0 53 -80 249
l-91 223 25 99 c17 68 22 101 15 108 -6 6 -13 8 -17 5 -7 -8 -54 -187 -54
-210 0 -10 38 -111 85 -225 47 -115 84 -217 83 -228 -2 -12 -12 -21 -25 -23
-18 -3 -34 23 -123 193 -56 108 -107 194 -113 192 -6 -2 -55 -89 -109 -193
-56 -109 -104 -190 -113 -192 -23 -5 -45 16 -38 36 3 9 44 111 91 226 l85 209
-16 211 c-19 229 -16 256 27 330 40 68 99 108 201 136 39 11 61 23 63 34 4 20
-6 19 -83 -3z"/>
<path d="M669 1087 c-65 -50 -43 -158 35 -173 93 -17 151 83 90 155 -21 26
-33 31 -67 31 -23 0 -49 -6 -58 -13z m105 -50 c19 -26 19 -30 5 -55 -20 -37
-80 -43 -103 -10 -22 30 -20 54 5 79 27 27 67 21 93 -14z"/>
<path d="M565 880 c-11 -18 3 -27 52 -34 27 -3 81 -16 121 -28 66 -19 77 -26
128 -84 l55 -63 -60 -63 c-33 -35 -61 -69 -61 -75 0 -28 28 -9 94 63 l68 75
-59 72 c-67 81 -82 90 -185 116 -111 28 -146 33 -153 21z"/>
</g>
</svg>
